<?xml version="1.0" encoding="UTF-8" standalone="no"?>
<!-- Created with Inkscape (http://www.inkscape.org/) -->

<svg
   width="260"
   height="260"
   viewBox="0 0 68.791667 68.791667"
   version="1.1"
   id="svg5"
   inkscape:version="1.1.1 (c3084ef, 2021-09-22)"
   sodipodi:docname="Weather-widget-icon.svg"
   xmlns:inkscape="http://www.inkscape.org/namespaces/inkscape"
   xmlns:sodipodi="http://sodipodi.sourceforge.net/DTD/sodipodi-0.dtd"
   xmlns="http://www.w3.org/2000/svg"
   xmlns:svg="http://www.w3.org/2000/svg">
  <sodipodi:namedview
     id="namedview7"
     pagecolor="#ffffff"
     bordercolor="#666666"
     borderopacity="1.0"
     inkscape:pageshadow="2"
     inkscape:pageopacity="0.0"
     inkscape:pagecheckerboard="0"
     inkscape:document-units="mm"
     showgrid="false"
     units="px"
     inkscape:zoom="2.2271324"
     inkscape:cx="157.60177"
     inkscape:cy="106.41487"
     inkscape:window-width="1801"
     inkscape:window-height="1192"
     inkscape:window-x="543"
     inkscape:window-y="25"
     inkscape:window-maximized="0"
     inkscape:current-layer="layer1" />
  <defs
     id="defs2" />
  <g
     inkscape:label="Layer 1"
     inkscape:groupmode="layer"
     id="layer1">
    <rect
       style="fill:#00a7ff;fill-opacity:1;fill-rule:evenodd;stroke-width:2.1601"
       id="rect279"
       width="69.037651"
       height="69.052505"
       x="0.01485"
       y="0"
       sodipodi:insensitive="true" />
    <ellipse
       style="fill:#fffc5a;stroke-width:2.015"
       id="path56"
       cx="59.934601"
       cy="7.3062"
       rx="3.0294001"
       ry="2.9106002" />
    <path
       style="fill:#ffffff;fill-opacity:1;stroke:#000000;stroke-width:0.056126"
       d=""
       id="path2660"
       transform="scale(0.26458333)" />
    <path
       style="fill:#ffffff;fill-opacity:1;stroke:#000000;stroke-width:0.056126"
       d=""
       id="path2699"
       transform="scale(0.26458333)" />
    <path
       style="fill:#ffffff;fill-opacity:1;stroke:#000000;stroke-width:0.056126"
       d=""
       id="path2816"
       transform="scale(0.26458333)" />
    <path
       id="path4202"
       style="fill:#ffffff;stroke-width:0"
       d="m 53.104449,3.8014116 a 5.3680057,5.2155227 0 0 0 -4.780409,2.8520558 4.6360053,4.6736505 0 0 0 -3.515255,-1.6310911 4.6360053,4.6736505 0 0 0 -4.602092,4.1248725 5.0020058,5.2832568 0 0 0 -0.768396,-0.06112 5.0020058,5.2832568 0 0 0 -5.001176,5.2845612 5.0020058,5.2832568 0 0 0 5.001176,5.284562 5.0020058,5.2832568 0 0 0 2.428411,-0.66466 5.2460058,3.7931079 0 0 1 0.0042,0 5.2460058,3.7931079 0 0 0 4.886537,2.423073 5.2460058,3.7931079 0 0 0 3.905837,-1.263393 6.5270072,4.8091189 0 0 0 2.746827,0.452564 6.5270072,4.8091189 0 0 0 4.87805,-1.616961 4.8800059,4.1995118 0 0 1 0.0042,0 4.8800059,4.1995118 0 0 0 2.373219,0.53275 4.8800059,4.1995118 0 0 0 4.882298,-4.200305 4.8800059,4.1995118 0 0 0 -1.129294,-2.682352 4.3920052,3.1835011 0 0 0 1.129294,-2.126083 4.3920052,3.1835011 0 0 0 -4.394068,-3.1820505 4.3920052,3.1835011 0 0 0 -2.776542,0.7165671 5.3680057,5.2155227 0 0 0 -5.272879,-4.2427252 z" />
    <path
       id="path4202-8"
       style="fill:#ffffff;stroke-width:0"
       d="m 19.981551,49.762275 a 5.3680057,5.2155227 0 0 0 -4.780409,2.852056 4.6360053,4.6736505 0 0 0 -3.515255,-1.631091 4.6360053,4.6736505 0 0 0 -4.6020919,4.124872 5.0020058,5.2832568 0 0 0 -0.768396,-0.06112 5.0020058,5.2832568 0 0 0 -5.001176,5.284561 5.0020058,5.2832568 0 0 0 5.001176,5.284562 5.0020058,5.2832568 0 0 0 2.428411,-0.66466 5.2460058,3.7931079 0 0 1 0.0042,0 5.2460058,3.7931079 0 0 0 4.8865369,2.423073 5.2460058,3.7931079 0 0 0 3.905837,-1.263393 6.5270072,4.8091189 0 0 0 2.746827,0.452564 6.5270072,4.8091189 0 0 0 4.87805,-1.616961 4.8800059,4.1995118 0 0 1 0.0042,0 4.8800059,4.1995118 0 0 0 2.373219,0.53275 4.8800059,4.1995118 0 0 0 4.882298,-4.200305 4.8800059,4.1995118 0 0 0 -1.129294,-2.682352 4.3920052,3.1835011 0 0 0 1.129294,-2.126083 4.3920052,3.1835011 0 0 0 -4.394068,-3.18205 4.3920052,3.1835011 0 0 0 -2.776542,0.716567 5.3680057,5.2155227 0 0 0 -5.272879,-4.242725 z" />
    <g
       aria-label="We"
       transform="matrix(0.95446396,0,0,1.0477085,-0.71280001,-0.95040002)"
       id="text1776"
       style="font-size:33.1248px;line-height:1.25;font-family:'Brush Script MT';-inkscape-font-specification:'Brush Script MT, Normal';fill:#fffc5a;stroke-width:4.14059">
      <path
         d="m 6.7856885,32.282639 q 0,-0.372007 0.1617422,-1.03515 0.1617422,-0.679317 0.4367039,-1.051324 0.6954914,-0.986628 1.2777633,-1.811513 0.5822719,-0.824885 1.0351501,-1.423331 0.452878,-0.598446 0.905756,-1.067499 2.765792,-2.99223 3.962684,-4.464084 1.196892,-1.488029 1.196892,-2.0703 0,-0.388182 -0.355833,-0.598447 -0.355832,-0.226439 -0.938104,-0.226439 -1.196893,0 -3.008405,0.857234 -1.8115127,0.841059 -4.2376456,2.199694 -2.4099587,1.358634 -2.6849205,1.358634 -0.4367039,0 -0.4367039,-0.630794 0,-0.53375 0.3396586,-1.520377 0.2587875,-1.067498 0.4205297,-1.64977 0.1617422,-0.598446 0.5337493,-1.067499 0.3881812,-0.469052 1.2615891,-1.018976 0.8895821,-0.549923 2.7172689,-1.504202 l 0.1617422,0.598446 q 1.5203762,-0.61462 2.8628372,-0.938105 1.358634,-0.323484 2.312913,-0.323484 1.87621,0 2.652572,0.646969 0.792537,0.630794 0.792537,2.765791 0,1.164544 -0.339659,1.940907 -0.339658,0.776362 -1.326286,2.167345 -2.248216,3.267192 -3.380412,4.528782 -3.2833663,3.752418 -3.2833663,4.383213 0,0.355833 0.4690523,0.355833 0.388181,0 1.099847,-0.549924 0.711666,-0.549923 1.714467,-1.585073 1.002802,-1.03515 2.781966,-2.959882 1.892384,-2.037952 3.186321,-3.590677 1.310112,-1.568899 2.151172,-2.668746 0.841059,-1.116021 0.889582,-1.196893 0.873407,-1.067498 1.795338,-1.746815 0.938105,-0.695492 1.196892,-0.695492 0.194091,0 0.452878,0.355833 0.258788,0.355833 0.436704,0.84106 0.194091,0.485226 0.194091,0.744014 0,0.08087 -0.388181,0.792536 -0.388182,0.695492 -0.84106,1.45568 -0.452878,0.744014 -1.45568,2.296739 -2.199693,3.412761 -3.364237,5.741848 -1.164544,2.312914 -1.164544,3.040754 0,0.258787 0.177916,0.485226 0.194091,0.210265 0.388182,0.210265 0.258787,0 0.938104,-0.404355 0.679318,-0.42053 1.504203,-1.196893 1.083673,-1.03515 1.973255,-2.151171 0.889582,-1.116021 1.76299,-2.49083 0.873407,-1.374808 1.552725,-2.604049 0.679317,-1.229241 1.374808,-2.587875 l -0.274961,-0.824885 q -0.0647,-0.194091 -0.0647,-0.501401 0,-0.242613 0.954279,-1.568899 0.954279,-1.342461 1.261589,-1.342461 0.339658,0 0.566097,0.501401 0.242614,0.485227 0.242614,0.986627 0,0.549924 -0.501401,2.199694 -0.485227,1.633597 -1.536551,3.962684 -1.03515,2.329088 -2.571701,4.739046 -1.326286,2.102649 -2.846662,3.606851 -1.504203,1.488029 -2.717269,2.215869 -1.213067,0.727839 -1.795339,0.727839 -0.663143,0 -1.390983,-0.582272 -0.598446,-0.517575 -0.857233,-0.92193 -0.242614,-0.42053 -0.323485,-0.905756 -0.08087,-0.485227 -0.08087,-1.132196 0,-1.374808 0.760189,-3.218669 0.760188,-1.843861 2.26439,-4.593479 -4.706698,5.725674 -7.294573,8.329723 -2.5717006,2.60405 -3.7685929,2.60405 -0.7925367,0 -1.3424602,-0.938105 -0.5499234,-0.954279 -0.5499234,-2.280565 z"
         id="path2103" />
      <path
         d="m 31.76677,30.390255 v 0.404356 q 0,0.954279 0.469053,1.488028 0.469052,0.533749 1.229241,0.533749 0.792536,0 1.633596,-0.372007 0.857233,-0.372007 1.698293,-0.986627 0.841059,-0.614621 2.054126,-1.649771 v 0.986628 q -1.827687,2.199694 -3.428935,3.380412 -1.601248,1.164543 -3.251018,1.164543 -1.439506,0 -2.280565,-1.116021 -0.841059,-1.116021 -0.841059,-3.056927 0,-1.698293 0.792536,-3.073102 0.792537,-1.390983 2.587875,-2.927534 1.229241,-1.051324 2.442308,-1.585073 1.213066,-0.533749 2.167345,-0.533749 0.760188,0 1.196892,0.355832 0.452878,0.339659 0.452878,1.035151 0,1.018975 -0.760188,2.037951 -0.760188,1.002802 -2.329087,2.005603 -1.552726,0.986628 -3.833291,1.908558 z m 0.161743,-1.051324 q 1.455679,-0.566098 2.490829,-1.407157 1.035151,-0.841059 1.520377,-1.601248 0.501401,-0.776362 0.501401,-1.132195 0,-0.372007 -0.339659,-0.372007 -0.291136,0 -0.954279,0.372007 -0.646968,0.372007 -1.326286,0.970453 -0.663143,0.598446 -1.196892,1.407157 -0.533749,0.808711 -0.695491,1.76299 z"
         id="path2105" />
    </g>
    <g
       aria-label="Wi"
       transform="matrix(0.95446396,0,0,1.0477085,-2.1384,-3.2076001)"
       id="text1776-2"
       style="font-size:33.1248px;line-height:1.25;font-family:'Brush Script MT';-inkscape-font-specification:'Brush Script MT, Normal';fill:#fffc5a;stroke-width:4.14059">
      <path
         d="m 38.830909,52.910511 q 0,-0.372007 0.161742,-1.03515 0.161742,-0.679317 0.436704,-1.051324 0.695491,-0.986627 1.277763,-1.811512 0.582272,-0.824886 1.03515,-1.423332 0.452879,-0.598446 0.905757,-1.067498 2.765791,-2.992231 3.962683,-4.464085 1.196893,-1.488028 1.196893,-2.0703 0,-0.388181 -0.355833,-0.598446 -0.355833,-0.226439 -0.938105,-0.226439 -1.196892,0 -3.008405,0.857233 -1.811512,0.84106 -4.237645,2.199694 -2.409959,1.358635 -2.684921,1.358635 -0.436704,0 -0.436704,-0.630795 0,-0.533749 0.339659,-1.520376 0.258788,-1.067499 0.42053,-1.649771 0.161742,-0.598446 0.533749,-1.067498 0.388181,-0.469053 1.261589,-1.018976 0.889582,-0.549924 2.717269,-1.504203 l 0.161742,0.598447 q 1.520377,-0.614621 2.862837,-0.938105 1.358634,-0.323485 2.312913,-0.323485 1.87621,0 2.652572,0.646969 0.792537,0.630795 0.792537,2.765792 0,1.164544 -0.339658,1.940906 -0.339659,0.776363 -1.326286,2.167346 -2.248217,3.267192 -3.380412,4.528781 -3.283367,3.752419 -3.283367,4.383213 0,0.355833 0.469052,0.355833 0.388182,0 1.099847,-0.549923 0.711666,-0.549924 1.714468,-1.585074 1.002801,-1.03515 2.781965,-2.959882 1.892384,-2.037951 3.186322,-3.590677 1.310111,-1.568899 2.151171,-2.668746 0.841059,-1.116021 0.889582,-1.196892 0.873408,-1.067499 1.795338,-1.746816 0.938105,-0.695491 1.196893,-0.695491 0.19409,0 0.452878,0.355833 0.258787,0.355832 0.436704,0.841059 0.19409,0.485227 0.19409,0.744014 0,0.08087 -0.388181,0.792537 -0.388181,0.695491 -0.841059,1.45568 -0.452879,0.744014 -1.45568,2.296739 -2.199694,3.41276 -3.364238,5.741848 -1.164544,2.312913 -1.164544,3.040753 0,0.258788 0.177917,0.485227 0.19409,0.210264 0.388181,0.210264 0.258788,0 0.938105,-0.404355 0.679317,-0.42053 1.504202,-1.196892 1.083673,-1.03515 1.973255,-2.151171 0.889582,-1.116022 1.76299,-2.49083 0.873408,-1.374809 1.552725,-2.60405 0.679317,-1.22924 1.374809,-2.587875 L 60.423492,41.02246 q -0.0647,-0.194091 -0.0647,-0.501401 0,-0.242613 0.954279,-1.568899 0.954279,-1.34246 1.261589,-1.34246 0.339659,0 0.566098,0.501401 0.242613,0.485226 0.242613,0.986627 0,0.549923 -0.501401,2.199694 -0.485226,1.633596 -1.536551,3.962684 -1.03515,2.329087 -2.5717,4.739046 -1.326286,2.102648 -2.846663,3.606851 -1.504203,1.488028 -2.717269,2.215868 -1.213066,0.72784 -1.795338,0.72784 -0.663143,0 -1.390983,-0.582272 -0.598446,-0.517575 -0.857234,-0.921931 -0.242613,-0.420529 -0.323484,-0.905756 -0.08087,-0.485226 -0.08087,-1.132195 0,-1.374809 0.760188,-3.21867 0.760188,-1.843861 2.264391,-4.593478 -4.706698,5.725673 -7.294573,8.329723 -2.571701,2.604049 -3.768593,2.604049 -0.792537,0 -1.342461,-0.938105 -0.549923,-0.954279 -0.549923,-2.280565 z"
         id="path2108" />
      <path
         d="m 67.855546,43.20598 q -0.404356,0 -0.776363,-0.30731 -0.355833,-0.307311 -0.355833,-0.776363 0,-0.711666 0.679318,-1.585074 0.679317,-0.873407 1.407157,-0.873407 0.485226,0 0.808711,0.30731 0.323484,0.291136 0.323484,0.857233 0,0.695492 -0.663143,1.536551 -0.663143,0.84106 -1.423331,0.84106 z m 1.099847,7.229876 v 1.180718 q -1.5689,2.021777 -2.927534,3.056927 -1.358635,1.018976 -2.312913,1.018976 -1.326286,0 -1.973255,-1.390983 -0.646969,-1.390983 -0.646969,-3.040753 0,-0.630795 0.129394,-1.196892 0.129393,-0.582272 0.30731,-0.954279 0.177916,-0.372007 0.663143,-1.164544 2.296739,-3.574502 4.205297,-3.574502 0.986627,0 0.986627,0.760188 0,0.517575 -0.646968,1.617422 -0.630795,1.099847 -1.132196,1.568899 -1.407157,1.358635 -1.843861,1.892384 -0.42053,0.533749 -0.42053,1.213066 0,0.582272 0.436704,0.970453 0.436704,0.388182 1.132196,0.388182 0.760188,0 1.665944,-0.549924 0.921931,-0.566097 2.377611,-1.795338 z"
         id="path2110" />
    </g>
    <path
       style="fill:#ffff00;stroke:#ffff00;stroke-width:0.264583px;stroke-linecap:butt;stroke-linejoin:miter;stroke-opacity:1"
       d="M 57.721949,4.5440999 56.162701,2.9403"
       id="path171" />
    <path
       style="fill:#ffff00;stroke:#ffff00;stroke-width:0.264583px;stroke-linecap:butt;stroke-linejoin:miter;stroke-opacity:1"
       d="m 58.984199,4.05405 -0.51975,-3.0294"
       id="path1066" />
    <path
       style="fill:#ffff00;stroke:#ffff00;stroke-width:0.264583px;stroke-linecap:butt;stroke-linejoin:miter;stroke-opacity:1"
       d="m 63.476326,6.0291 2.8809,-1.4255999"
       id="path1066-3"
       sodipodi:nodetypes="cc" />
    <path
       style="fill:#ffff00;stroke:#ffff00;stroke-width:0.264583px;stroke-linecap:butt;stroke-linejoin:miter;stroke-opacity:1"
       d="M 60.246451,3.96495 60.291,1.9305"
       id="path1068"
       sodipodi:nodetypes="cc" />
    <path
       style="fill:#ffff00;stroke:#ffff00;stroke-width:0.264583px;stroke-linecap:butt;stroke-linejoin:miter;stroke-opacity:1"
       d="M 61.449301,4.2025501 63.1719,1.3959"
       id="path1070" />
    <path
       style="fill:#ffff00;stroke:#ffff00;stroke-width:0.264583px;stroke-linecap:butt;stroke-linejoin:miter;stroke-opacity:1"
       d="M 62.65215,4.9599 64.478701,3.2373001"
       id="path1072" />
    <path
       style="fill:#ffff00;stroke:#ffff00;stroke-width:0.264583px;stroke-linecap:butt;stroke-linejoin:miter;stroke-opacity:1"
       d="m 63.736201,6.9498 1.70775,0.4455001"
       id="path1076" />
  </g>
</svg>
