<?xml version="1.0" standalone="no"?>
<!DOCTYPE svg PUBLIC "-//W3C//DTD SVG 20010904//EN"
 "http://www.w3.org/TR/2001/REC-SVG-20010904/DTD/svg10.dtd">
<svg version="1.0" xmlns="http://www.w3.org/2000/svg"
 width="700.000000pt" height="700.000000pt" viewBox="0 0 700.000000 700.000000"
 preserveAspectRatio="xMidYMid meet">
<metadata>
Created by potrace 1.14, written by Peter Selinger 2001-2017
</metadata>
<g transform="translate(0.000000,700.000000) scale(0.100000,-0.100000)"
fill="#000000" stroke="none">
<path d="M0 3500 l0 -3500 3500 0 3500 0 0 3500 0 3500 -3500 0 -3500 0 0
-3500z m5990 3232 c20 -122 21 -156 4 -139 -11 11 -55 280 -48 297 10 25 21
-12 44 -158z m440 113 c-1 -6 -38 -70 -82 -142 -75 -122 -98 -152 -98 -122 0
18 164 279 173 276 5 -1 8 -7 7 -12z m-280 -84 c0 -67 -13 -161 -21 -161 -5 0
-9 45 -9 100 0 82 3 100 15 100 11 0 15 -11 15 -39z m-276 -222 c-4 -7 -39 21
-87 69 -53 53 -77 84 -72 93 6 9 31 -12 87 -69 44 -46 76 -87 72 -93z m608 39
c-57 -55 -97 -86 -104 -82 -8 5 20 38 81 96 51 48 98 85 104 81 6 -3 -29 -44
-81 -95z m-939 17 c85 -22 169 -68 233 -128 l57 -53 47 47 c181 181 493 74
525 -181 l7 -55 56 -25 c79 -35 164 -120 187 -189 30 -90 7 -183 -66 -265
l-30 -35 35 -46 c41 -53 76 -157 76 -224 0 -185 -157 -363 -365 -412 -88 -20
-220 -15 -303 13 l-72 24 -45 -31 c-60 -43 -147 -81 -242 -106 -108 -28 -306
-29 -413 -1 -74 19 -75 20 -102 1 -39 -28 -132 -69 -191 -85 -233 -62 -519 13
-636 168 -21 28 -42 46 -51 44 -8 -2 -42 -14 -75 -26 -181 -66 -384 -14 -521
132 -168 180 -196 451 -69 663 47 77 86 118 158 166 83 54 170 81 267 81 78 0
80 1 86 27 25 115 87 219 168 283 181 144 419 141 602 -8 l53 -44 29 43 c71
102 194 189 315 222 69 18 209 19 280 0z m1207 -68 c0 -11 -258 -147 -280
-147 -6 0 -10 4 -10 10 0 9 263 148 283 149 4 1 7 -5 7 -12z m-141 -253 c28
-8 51 -19 51 -24 0 -12 -15 -12 -60 -1 -19 6 -54 15 -78 21 -25 6 -40 15 -36
21 7 12 44 7 123 -17z m-5081 -789 c106 -32 148 -109 159 -285 7 -118 -9 -218
-47 -299 -71 -149 -299 -493 -505 -761 -218 -283 -272 -373 -244 -406 27 -32
70 -17 162 59 143 119 745 854 967 1182 88 129 199 249 282 305 74 49 88 44
129 -45 52 -109 51 -116 -29 -267 -38 -73 -109 -200 -157 -283 -280 -482 -453
-837 -471 -969 -8 -58 13 -96 54 -96 92 0 326 237 504 510 90 138 221 374 312
565 l66 139 -15 52 c-8 29 -15 65 -15 82 0 43 158 289 199 312 27 14 57 -13
75 -67 20 -58 20 -92 1 -185 -80 -382 -352 -982 -589 -1303 -93 -125 -316
-341 -414 -399 -105 -63 -160 -71 -225 -33 -48 29 -117 99 -141 145 -24 46
-39 168 -32 252 12 141 94 384 206 610 21 41 45 93 54 115 22 52 16 45 -124
-140 -286 -378 -597 -748 -708 -842 -122 -104 -194 -135 -254 -110 -106 44
-165 255 -124 441 15 65 30 96 110 218 162 252 183 280 347 478 282 341 399
509 399 573 0 75 -101 106 -235 72 -87 -22 -288 -125 -550 -282 -127 -76 -249
-147 -272 -157 -56 -25 -73 -12 -73 53 0 58 74 359 100 412 36 70 132 147 319
254 67 38 85 45 92 34 5 -8 9 -20 9 -28 0 -8 7 -11 18 -8 9 4 76 26 147 51 72
25 166 52 210 61 95 17 226 13 303 -10z m2079 -864 c58 -27 76 -65 71 -155 -9
-190 -182 -365 -535 -544 -149 -75 -146 -70 -122 -182 30 -140 154 -178 321
-98 80 38 157 94 258 185 106 96 100 93 100 35 0 -47 -4 -55 -67 -134 -152
-189 -305 -320 -432 -369 -80 -32 -210 -33 -267 -2 -117 63 -184 211 -184 413
0 217 74 379 262 575 140 147 256 227 388 270 91 29 151 31 207 6z m889 -1106
c98 -32 138 -95 156 -246 9 -67 8 -113 0 -177 -15 -113 -67 -219 -235 -478
-123 -189 -151 -229 -385 -537 -172 -227 -212 -309 -157 -323 75 -19 193 96
591 572 190 228 346 429 479 619 132 189 191 261 267 321 87 71 113 85 132 78
22 -8 60 -76 81 -144 l17 -56 -57 -114 c-32 -63 -115 -214 -185 -335 -236
-407 -370 -673 -434 -857 -30 -87 -33 -134 -10 -166 22 -32 61 -28 120 12 221
149 474 504 721 1012 l83 172 -15 42 c-31 87 -19 125 86 281 62 93 101 131
125 122 30 -11 57 -85 58 -153 1 -207 -230 -803 -463 -1196 -166 -280 -407
-535 -595 -629 -112 -57 -169 -43 -268 63 -70 77 -83 119 -83 277 1 92 6 139
23 205 28 101 102 287 188 469 35 74 64 136 64 139 0 2 -61 -76 -136 -174
-455 -595 -706 -874 -849 -945 -73 -35 -106 -34 -156 8 -78 66 -120 237 -94
383 7 41 18 88 24 103 30 77 289 446 448 639 262 317 349 436 378 518 39 111
-72 161 -241 109 -91 -27 -302 -138 -552 -288 -111 -67 -223 -131 -247 -143
-43 -21 -46 -21 -63 -5 -24 25 -21 79 17 237 70 287 79 300 344 459 121 73
137 80 137 59 1 -40 16 -41 106 -5 239 93 438 118 580 72z m2047 -455 c91
-102 -59 -365 -192 -335 -35 7 -76 50 -85 88 -17 70 63 220 139 265 52 30 100
24 138 -18z m-236 -492 c29 -32 21 -88 -30 -193 -59 -122 -84 -157 -201 -285
-108 -118 -138 -169 -139 -239 -2 -125 120 -188 248 -127 59 27 147 92 226
164 31 29 60 52 63 52 3 0 6 -27 6 -59 0 -58 -1 -61 -72 -153 -144 -186 -304
-319 -406 -334 -95 -14 -170 34 -220 143 -60 131 -80 344 -46 476 29 112 151
322 258 443 108 122 256 175 313 112z m-4177 -642 c199 -36 356 -169 419 -352
12 -35 25 -58 33 -57 7 1 47 14 88 29 64 24 90 27 185 27 165 0 280 -45 369
-144 100 -111 98 -250 -5 -357 l-31 -33 31 -45 c60 -82 75 -130 76 -229 0 -81
-3 -97 -32 -158 -58 -121 -176 -214 -323 -252 -89 -23 -242 -16 -322 14 l-58
22 -32 -24 c-52 -39 -150 -85 -235 -109 -104 -31 -341 -33 -446 -4 -62 16 -70
16 -85 3 -26 -24 -140 -74 -207 -92 -36 -10 -103 -16 -165 -17 -201 -1 -381
74 -470 198 l-30 43 -55 -25 c-326 -143 -697 117 -698 491 -1 159 48 280 158
391 105 107 254 166 380 151 l44 -4 12 51 c30 131 132 261 251 318 172 84 375
57 519 -70 l46 -41 42 60 c68 96 173 169 291 203 100 28 149 30 250 12z"/>
<path d="M3375 4429 c-146 -77 -282 -237 -326 -382 -12 -37 -20 -70 -17 -72 2
-2 31 11 66 28 146 75 277 199 337 320 38 75 42 96 23 115 -17 17 -38 15 -83
-9z"/>
</g>
</svg>
