<?xml version="1.0" standalone="no"?>
<!DOCTYPE svg PUBLIC "-//W3C//DTD SVG 20010904//EN"
 "http://www.w3.org/TR/2001/REC-SVG-20010904/DTD/svg10.dtd">
<svg version="1.0" xmlns="http://www.w3.org/2000/svg"
 width="700.000000pt" height="700.000000pt" viewBox="0 0 700.000000 700.000000"
 preserveAspectRatio="xMidYMid meet">
<metadata>
Created by potrace 1.14, written by Peter Selinger 2001-2017
</metadata>
<g transform="translate(0.000000,700.000000) scale(0.100000,-0.100000)"
fill="#000000" stroke="none">
<path d="M0 3500 l0 -3500 3500 0 3500 0 0 3500 0 3500 -3500 0 -3500 0 0
-3500z m5990 3232 c20 -122 21 -156 4 -139 -11 11 -55 280 -48 297 10 25 21
-12 44 -158z m440 113 c-1 -6 -38 -70 -82 -142 -75 -122 -98 -152 -98 -122 0
18 164 279 173 276 5 -1 8 -7 7 -12z m-280 -84 c0 -67 -13 -161 -21 -161 -5 0
-9 45 -9 100 0 82 3 100 15 100 11 0 15 -11 15 -39z m-276 -222 c-4 -7 -39 21
-87 69 -53 53 -77 84 -72 93 6 9 31 -12 87 -69 44 -46 76 -87 72 -93z m608 39
c-57 -55 -97 -86 -104 -82 -8 5 20 38 81 96 51 48 98 85 104 81 6 -3 -29 -44
-81 -95z m-268 -49 c112 -41 188 -150 189 -270 1 -54 -4 -78 -30 -130 -17 -35
-33 -76 -37 -92 -4 -15 -19 -41 -35 -59 l-28 -32 30 -43 c41 -58 49 -141 18
-200 -62 -122 -255 -191 -418 -150 l-62 16 -58 -29 c-94 -48 -185 -64 -321
-56 -65 4 -128 7 -142 8 -14 0 -54 -12 -90 -27 -50 -21 -86 -29 -155 -33 -144
-7 -260 27 -343 102 l-39 36 -39 -17 c-60 -26 -195 -23 -259 6 -116 51 -174
115 -201 221 -47 184 109 365 325 375 64 2 64 3 76 39 41 119 159 197 300 199
87 0 139 -14 202 -56 l48 -32 47 48 c145 147 417 152 566 11 l41 -40 17 45
c24 62 97 133 165 159 72 28 162 28 233 1z m536 -2 c0 -11 -258 -147 -280
-147 -6 0 -10 4 -10 10 0 9 263 148 283 149 4 1 7 -5 7 -12z m-141 -253 c28
-8 51 -19 51 -24 0 -12 -15 -12 -60 -1 -19 6 -54 15 -78 21 -25 6 -40 15 -36
21 7 12 44 7 123 -17z m-5526 -1875 c48 -292 93 -543 99 -557 10 -21 24 -29
61 -36 26 -5 49 -7 51 -5 4 4 256 1112 256 1124 0 3 123 5 273 5 l273 0 138
-542 c77 -299 143 -553 147 -565 9 -25 40 -30 83 -13 17 6 28 21 34 47 6 21
35 261 66 533 32 272 59 505 62 518 4 22 5 22 199 22 l195 0 -6 -27 c-2 -16
-47 -326 -99 -691 -87 -612 -97 -668 -122 -715 -16 -28 -46 -63 -67 -79 -76
-55 -116 -61 -413 -66 l-272 -4 -10 39 c-9 32 -186 760 -224 923 l-14 55 -12
-70 c-12 -73 -188 -897 -197 -928 -5 -17 -24 -18 -332 -15 -317 3 -329 4 -377
26 -91 42 -149 118 -173 227 -14 62 -222 1291 -222 1311 0 12 40 14 258 14
l258 0 87 -531z m3272 302 c156 -42 248 -105 304 -210 48 -90 61 -169 61 -374
l0 -177 -477 2 -478 3 3 30 c4 48 31 100 62 118 24 14 59 17 230 17 l203 0 -5
93 c-8 156 -61 234 -175 257 -116 25 -278 -7 -332 -63 -68 -73 -100 -317 -70
-533 24 -173 91 -225 307 -240 92 -6 544 9 673 23 l59 6 0 -41 c0 -85 -20
-144 -64 -188 -70 -70 -140 -82 -531 -90 -506 -11 -689 20 -823 141 -96 87
-138 216 -148 455 -13 296 35 487 151 609 67 70 141 111 261 146 133 38 205
44 469 41 208 -3 251 -6 320 -25z m1819 -1540 c54 -24 66 -44 66 -116 0 -116
-45 -145 -218 -144 -125 1 -169 13 -199 59 -42 61 -22 168 37 200 64 34 238
35 314 1z m-2610 -688 c42 -258 83 -504 92 -548 17 -93 36 -115 95 -115 34 0
39 3 46 28 3 15 61 268 127 562 l121 535 271 3 271 2 57 -222 c32 -123 97
-376 145 -563 l87 -340 28 -3 c52 -6 74 5 86 46 8 28 130 1038 130 1075 0 4
88 7 196 7 l196 0 -6 -32 c-3 -18 -46 -323 -96 -678 -49 -355 -98 -665 -107
-689 -22 -60 -83 -124 -143 -150 -61 -26 -220 -41 -453 -41 -164 0 -168 0
-177 23 -5 12 -57 222 -116 467 -59 245 -111 463 -117 485 -9 38 -12 27 -53
-175 -24 -118 -73 -345 -107 -505 l-63 -290 -310 0 c-263 0 -317 3 -365 18
-75 22 -148 88 -179 159 -16 38 -55 245 -136 723 -63 369 -114 673 -114 678 0
4 116 7 259 7 l258 0 77 -467z m2717 -280 c0 -390 3 -547 12 -572 19 -54 55
-75 131 -73 36 0 75 3 86 7 19 6 20 2 20 -89 l0 -94 -27 -6 c-56 -12 -221 -26
-308 -26 -233 0 -353 56 -407 189 -23 56 -23 61 -26 629 l-3 572 261 0 260 0
1 -537z m-4774 -938 c102 -30 205 -126 232 -215 l11 -38 53 20 c66 25 181 27
257 5 160 -47 223 -186 131 -290 l-29 -31 26 -34 c103 -135 20 -333 -161 -387
-63 -19 -189 -19 -241 0 -37 13 -41 12 -100 -20 -33 -19 -88 -41 -121 -50 -69
-18 -217 -20 -281 -4 -41 11 -50 9 -112 -19 -171 -79 -401 -49 -503 65 l-34
38 -50 -18 c-75 -26 -194 -19 -263 17 -305 156 -216 606 126 635 l73 6 17 50
c43 126 157 205 296 205 75 0 136 -20 196 -63 l44 -33 31 40 c38 50 112 101
174 120 61 19 165 20 228 1z"/>
</g>
</svg>
