<?xml version="1.0" encoding="UTF-8" standalone="no"?>
<!-- Created with Inkscape (http://www.inkscape.org/) -->

<svg
   width="300"
   height="150"
   viewBox="0 0 79.375 39.6875"
   version="1.1"
   id="svg5"
   inkscape:version="1.1.1 (c3084ef, 2021-09-22)"
   sodipodi:docname="cloud-with-sun.svg"
   xmlns:inkscape="http://www.inkscape.org/namespaces/inkscape"
   xmlns:sodipodi="http://sodipodi.sourceforge.net/DTD/sodipodi-0.dtd"
   xmlns="http://www.w3.org/2000/svg"
   xmlns:svg="http://www.w3.org/2000/svg">
  <sodipodi:namedview
     id="namedview7"
     pagecolor="#c2c2c2"
     bordercolor="#666666"
     borderopacity="1.0"
     inkscape:pageshadow="2"
     inkscape:pageopacity="0"
     inkscape:pagecheckerboard="0"
     inkscape:document-units="mm"
     showgrid="false"
     units="px"
     inkscape:zoom="2.2271324"
     inkscape:cx="157.60177"
     inkscape:cy="106.41487"
     inkscape:window-width="1801"
     inkscape:window-height="1192"
     inkscape:window-x="543"
     inkscape:window-y="25"
     inkscape:window-maximized="0"
     inkscape:current-layer="layer1" />
  <defs
     id="defs2" />
  <g
     inkscape:label="Layer 1"
     inkscape:groupmode="layer"
     id="layer1">
    <path
       style="fill:#ffffff;fill-opacity:1;stroke:#000000;stroke-width:0.056126"
       d=""
       id="path2660"
       transform="scale(0.26458333)" />
    <path
       style="fill:#ffffff;fill-opacity:1;stroke:#000000;stroke-width:0.056126"
       d=""
       id="path2699"
       transform="scale(0.26458333)" />
    <path
       style="fill:#ffffff;fill-opacity:1;stroke:#000000;stroke-width:0.056126"
       d=""
       id="path2816"
       transform="scale(0.26458333)" />
    <g
       id="g275"
       transform="matrix(2.4825693,0,0,1.9051973,-85.501753,-1.3815572)">
      <ellipse
         style="fill:#fffc5a;stroke-width:2.015"
         id="path56"
         cx="59.934601"
         cy="7.3062"
         rx="3.0294001"
         ry="2.9106002" />
      <path
         id="path4202"
         style="fill:#ffffff;stroke-width:0"
         d="m 53.104449,3.8014116 a 5.3680057,5.2155227 0 0 0 -4.780409,2.8520558 4.6360053,4.6736505 0 0 0 -3.515255,-1.6310911 4.6360053,4.6736505 0 0 0 -4.602092,4.1248725 5.0020058,5.2832568 0 0 0 -0.768396,-0.06112 5.0020058,5.2832568 0 0 0 -5.001176,5.2845612 5.0020058,5.2832568 0 0 0 5.001176,5.284562 5.0020058,5.2832568 0 0 0 2.428411,-0.66466 5.2460058,3.7931079 0 0 1 0.0042,0 5.2460058,3.7931079 0 0 0 4.886537,2.423073 5.2460058,3.7931079 0 0 0 3.905837,-1.263393 6.5270072,4.8091189 0 0 0 2.746827,0.452564 6.5270072,4.8091189 0 0 0 4.87805,-1.616961 4.8800059,4.1995118 0 0 1 0.0042,0 4.8800059,4.1995118 0 0 0 2.373219,0.53275 4.8800059,4.1995118 0 0 0 4.882298,-4.200305 4.8800059,4.1995118 0 0 0 -1.129294,-2.682352 4.3920052,3.1835011 0 0 0 1.129294,-2.126083 4.3920052,3.1835011 0 0 0 -4.394068,-3.1820505 4.3920052,3.1835011 0 0 0 -2.776542,0.7165671 5.3680057,5.2155227 0 0 0 -5.272879,-4.2427252 z" />
      <path
         style="fill:#ffff00;stroke:#ffff00;stroke-width:0.264583px;stroke-linecap:butt;stroke-linejoin:miter;stroke-opacity:1"
         d="M 57.721949,4.5440999 56.162701,2.9403"
         id="path171" />
      <path
         style="fill:#ffff00;stroke:#ffff00;stroke-width:0.264583px;stroke-linecap:butt;stroke-linejoin:miter;stroke-opacity:1"
         d="m 58.984199,4.05405 -0.51975,-3.0294"
         id="path1066" />
      <path
         style="fill:#ffff00;stroke:#ffff00;stroke-width:0.264583px;stroke-linecap:butt;stroke-linejoin:miter;stroke-opacity:1"
         d="m 63.476326,6.0291 2.8809,-1.4255999"
         id="path1066-3"
         sodipodi:nodetypes="cc" />
      <path
         style="fill:#ffff00;stroke:#ffff00;stroke-width:0.264583px;stroke-linecap:butt;stroke-linejoin:miter;stroke-opacity:1"
         d="M 60.246451,3.96495 60.291,1.9305"
         id="path1068"
         sodipodi:nodetypes="cc" />
      <path
         style="fill:#ffff00;stroke:#ffff00;stroke-width:0.264583px;stroke-linecap:butt;stroke-linejoin:miter;stroke-opacity:1"
         d="M 61.449301,4.2025501 63.1719,1.3959"
         id="path1070" />
      <path
         style="fill:#ffff00;stroke:#ffff00;stroke-width:0.264583px;stroke-linecap:butt;stroke-linejoin:miter;stroke-opacity:1"
         d="M 62.65215,4.9599 64.478701,3.2373001"
         id="path1072" />
      <path
         style="fill:#ffff00;stroke:#ffff00;stroke-width:0.264583px;stroke-linecap:butt;stroke-linejoin:miter;stroke-opacity:1"
         d="m 63.736201,6.9498 1.70775,0.4455001"
         id="path1076" />
    </g>
  </g>
</svg>
