<?xml version="1.0" encoding="UTF-8" standalone="no"?>
<!-- Created with Inkscape (http://www.inkscape.org/) -->

<svg
   width="300"
   height="150"
   viewBox="0 0 79.375002 39.687501"
   version="1.1"
   id="svg5"
   inkscape:version="1.1.1 (c3084ef, 2021-09-22)"
   sodipodi:docname="cloud.svg"
   xmlns:inkscape="http://www.inkscape.org/namespaces/inkscape"
   xmlns:sodipodi="http://sodipodi.sourceforge.net/DTD/sodipodi-0.dtd"
   xmlns="http://www.w3.org/2000/svg"
   xmlns:svg="http://www.w3.org/2000/svg">
  <sodipodi:namedview
     id="namedview7"
     pagecolor="#cecece"
     bordercolor="#666666"
     borderopacity="1.0"
     inkscape:pageshadow="2"
     inkscape:pageopacity="0"
     inkscape:pagecheckerboard="0"
     inkscape:document-units="mm"
     showgrid="false"
     units="px"
     inkscape:zoom="1.763047"
     inkscape:cx="178.95155"
     inkscape:cy="89.901175"
     inkscape:window-width="1440"
     inkscape:window-height="847"
     inkscape:window-x="516"
     inkscape:window-y="1465"
     inkscape:window-maximized="0"
     inkscape:current-layer="layer1"
     width="150px"
     height="100px" />
  <defs
     id="defs2" />
  <g
     inkscape:label="Layer 1"
     inkscape:groupmode="layer"
     id="layer1">
    <path
       style="fill:#ffffff;fill-opacity:1;stroke:#000000;stroke-width:0.056126"
       d=""
       id="path2660"
       transform="scale(0.26458333)" />
    <path
       style="fill:#ffffff;fill-opacity:1;stroke:#000000;stroke-width:0.056126"
       d=""
       id="path2699"
       transform="scale(0.26458333)" />
    <path
       style="fill:#ffffff;fill-opacity:1;stroke:#000000;stroke-width:0.056126"
       d=""
       id="path2816"
       transform="scale(0.26458333)" />
    <path
       id="path4202-8"
       style="fill:#ffffff;stroke-width:0"
       d="M 47.629438,-0.0374131 A 13.612233,11.582174 0 0 0 35.507235,6.2961824 11.75602,10.378832 0 0 0 26.59322,2.6740004 11.75602,10.378832 0 0 0 14.923198,11.834149 12.684126,11.732594 0 0 0 12.9747,11.698399 12.684126,11.732594 0 0 0 0.29267116,23.433888 12.684126,11.732594 0 0 0 12.9747,35.169377 a 12.684126,11.732594 0 0 0 6.15798,-1.47601 13.302863,8.4234015 0 0 1 0.01097,0 13.302863,8.4234015 0 0 0 12.391319,5.380949 13.302863,8.4234015 0 0 0 9.904458,-2.805635 16.551236,10.679669 0 0 0 6.96542,1.005021 16.551236,10.679669 0 0 0 12.369808,-3.59081 12.374758,9.3259072 0 0 1 0.01041,0 12.374758,9.3259072 0 0 0 6.018039,1.183084 12.374758,9.3259072 0 0 0 12.38087,-9.327662 A 12.374758,9.3259072 0 0 0 76.3203,19.581585 11.137283,7.0696397 0 0 0 79.183974,14.860164 11.137283,7.0696397 0 0 0 68.041478,7.7937469 11.137283,7.0696397 0 0 0 61.000687,9.385035 13.612233,11.582174 0 0 0 47.62968,-0.03683235 Z" />
  </g>
</svg>
